<?xml version="1.0" encoding="UTF-8"?>
<svg id="_圖層_1" xmlns="http://www.w3.org/2000/svg" version="1.1" viewBox="0 0 574.84 106.45">
  <!-- Generator: Adobe Illustrator 29.1.0, SVG Export Plug-In . SVG Version: 2.1.0 Build 142)  -->
  <defs>
    <style>
      .st0 {
        fill: #e7b000;
      }

      .st1 {
        fill: #fff;
        fill-rule: evenodd;
      }

      .st2 {
        fill: #75106d;
      }

      .st3 {
        fill: #f5e6b4;
      }
    </style>
  </defs>
  <g>
    <g>
      <path class="st1" d="M177.67,35.15c-.11-.15-.31-.22-.6-.22-3.34-.39-6.21-1.15-8.5-2.26-2.14-1.05-4.42-2.62-6.78-4.61,1.39-.15,3.02-.26,4.94-.29,3.04-.05,3.66-.13,3.86-.19.52-.15.62-.44.62-.65,0-.5-.29-.91-.86-1.22-.51-.29-1.08-.43-1.71-.43-.48,0-1.5.19-3.11.58,0,0-3.43.68-4.54.89.08-.5.26-1.64.26-1.64,0,.02.15-.27.15-.27h0l.23-.57c0-.47-.48-.87-1.45-1.26,2.28-.56,4.3-.99,5.94-1.26.47,0,.49-.34.49-.41,0-.22-.12-.55-1.53-1.55-1-.72-1.73-1.07-2.22-1.07-.08,0-.31,0-.45.17-.02.04-.19.61-.25.81-.88.81-3.59,2.12-8.1,3.88l-.33.13.41.54h.14c1.36-.08,2.8-.33,4.27-.75h0c0,.06.37,1.76.37,1.76.13.58.2,1.15.2,1.71v.04c-.42.07-4.85.77-4.85.77-2.29.4-4.21.66-5.73.77l-.6.04.43.42c.89.85,1.64,1.26,2.31,1.26.17,0,.61-.04,2.39-.42,0,0,2.29-.49,3.49-.75-2.8,3.97-6.79,7.17-11.94,9.48l-.16.07v.35c0,.06.02.34.45.34.84,0,1.93-.27,3.32-.83,1.35-.55,2.56-1.19,3.61-1.88,1.04-.69,2.04-1.48,2.97-2.35.93-.87,1.8-1.79,2.59-2.74,0,0,1.15-1.52,1.8-2.38-.05,1.05-.16,2.02-.4,2.84-.3,1.08-.44,1.74-.44,2.07,0,.6.24,1.28.73,2.02l.02.04.1.06.09.06.37.15c.35,0,.61-.4.92-1.43.27-.84.41-1.87.41-3.04,0,0-.09-1.99-.13-3.05.74.89,2.1,2.28,4.21,4.27,2.63,2.48,4.4,3.69,5.4,3.69s3.36-.36,7.04-1.09l.16-.03.05-.16c.02-.06.02-.11.02-.16,0-.12-.04-.21-.09-.27v.02ZM165.57,36.07c-1.02-.44-1.77-.65-2.28-.65-.09.02-1.89.66-1.89.66-1.41.42-2.72.72-3.89.89l-1.88.25-.64-.15-1.1-.19c-.7,0-.77.4-.77.57.02.1.52,1.31.52,1.31.14.39.25,1,.32,1.79l.11,2.8c0,1.08-.07,1.88-.21,2.37l-.21,1.29c0,.76.15,1.5.45,2.19.38.84.64,1.17.95,1.17s.57-.27.81-2.87c.21.02.46.05.46.05l2.56-.29,2.2-.29c.31,0,.55.1.74.3.23.23.44.55.61.96l.6,1.56.49,1.4.14.02.54.12.1-.08c1.47-1.19,2.22-3.27,2.22-6.17l-.12-4.24c0-1.84.21-2.4.34-2.56.4-.52.45-.74.45-.88,0-.44-.51-.84-1.64-1.32h.02ZM163.63,46.24c-.2-.2-.42-.42-.42-.42-.44-.46-.89-.69-1.33-.69-.55,0-1.56.16-3.1.51-1.3.28-2.22.44-2.84.5,0-.47-.04-2.76-.04-3.19,1.19,0,2.5-.12,3.92-.36,2.41-.4,2.45-.46,2.54-.57-.02.02.15-.35.15-.35,0-.33-.24-.63-.72-.87-.42-.22-.87-.33-1.34-.33-.52,0-1.2.15-2,.45l-1.55.49s-.6.14-1,.23c0-.26.02-.51.02-.79,0-.67-.04-1.44-.09-2.25.79-.02,1.59-.09,2.37-.27,2.18-.47,3.67-.71,4.4-.71.27,0,.49.08.67.23.18.14.27.31.28.52l.14,1.98.11,2.89c0,1.83-.1,2.63-.18,3h.01Z"/>
      <path class="st1" d="M224.4,39.36c-3.71-1.12-6.38-2.16-7.95-3.09-1.46-.87-3.53-2.45-6.1-4.63,1.74-.27,3.47-.47,5.12-.51l3.35-.13c.67-.07.81-.35.81-.57,0-.3-.24-.64-.8-1.1-.5-.43-1.08-.66-1.74-.66-1.2,0-3.13.36-5.69,1.06.2-.68.94-3.2,1.02-3.46.25-.04,1.05-.15,1.05-.15l1.94-.2c.72-.06,1.69-.22,1.69-.89,0-.47-.29-1.02-1.69-1.02-.43,0-1.21.13-2.22.36.35-.76,1.67-3.68,1.67-3.68l-.04-.09c-.14-.38-.64-.75-1.58-1.16-.88-.39-1.52-.57-1.95-.56h-.09l-.07.06c-.24.2-.29.43-.29.59l.29.9c.18.36.26.85.26,1.44,0,.37-.15,1.41-.43,3.03-.3.06-3.95.78-4.5.89.02-.42.07-1.48.07-1.48l.16-2.06-.13-.07c-.98-.69-1.96-1.04-2.92-1.04-.65,0-.7.4-.7.52,0,.09,0,.1.56,1.1.33.58.57,1.29.71,2.11,0,0,.2.88.3,1.36-.46.09-3.98.79-3.98.79l.41.36c.57.51,1.25.77,1.99.77.38,0,.97-.12,1.72-.33.06.47.37,2.76.43,3.17-2.35.46-4.57.79-6.61.98l-.47.04.28.38c.54.74,1.37,1.12,2.45,1.12.61,0,1.3-.11,2.05-.31,0,0,.69-.17,1.2-.29-1.32,3.76-4.14,7.28-8.46,10.46l-.13.09c.14-.41.3-.83.5-1.31l3.34-7.09h-.78l-2.31,2.95c-1.02,1.37-1.74,2.24-2.15,2.6-.38.32-.77.49-1.15.51-.61.03-.92.23-.92.57,0,.5.2,1.39.61,2.71.45,1.46.9,2.11,1.46,2.11.71,0,.89-1.03.95-1.37.08-.42.22-.92.41-1.49l.45.33.12-.04c2.93-.84,5.34-2.69,7.21-5.42.18.92.29,1.97.29,3.21l-.11,2.97c0,1.1.4,2.14,1.2,3.09.83.97,2.52,1.44,5.17,1.44,1.65,0,3.25-.18,4.75-.53,1.64-.38,2.44-.95,2.44-1.73,0-.38-.27-.69-.81-.91l-1.11-.31c-.3,0-.66.12-1.07.34-.33.18-.98.37-1.92.57-.94.19-1.98.28-3.07.28-1.17,0-2.06-.12-2.64-.34-.51-.21-.81-.68-.89-1.44,0,0-.11-1.52-.16-2.15.3.02.7.05.7.05.36,0,1.31-.13,2.92-.4,2.47-.43,2.66-.66,2.76-.78l.27-.62c0-.45-.43-.7-.77-.84.17-.37.62-1.35.62-1.35.14-.32.38-.59.7-.81.48-.33.66-.55.66-.78,0-.39-.43-.79-1.36-1.31-.87-.5-1.46-.74-1.84-.74-.11.02-1.6.69-1.6.69l-1.68.56c-.63.16-1.23.24-1.79.24l-.5-.08c.37-.47,1.21-1.52,1.21-1.52,1.29-1.65,1.29-1.71,1.29-1.83,0-.22-.2-.51-.94-1.06.81-.16,2.74-.54,2.97-.59.19.21,3.58,4.02,3.58,4.02,1.27,1.42,2.37,2.53,3.35,3.4,1.01.89,1.68,1.39,2.04,1.54,0,0,1.2.2,1.2.2.37,0,1.37-.12,3.06-.38,2.6-.39,2.72-.58,2.72-.88,0-.12-.06-.28-.34-.38h-.03ZM195.83,43.77c.08-.06.15-.13.23-.19.02,0,.04,0,.07-.02h0l-.3.21ZM205.21,38.35c.49,0,1.17-.1,2.07-.29l2.03-.34c.08,0,.11.02.13.11,0,.02.08.81.08.81l-.1,1.19-.24.71s-.14.17-.97.37l-1.64.39s-.91.11-1.38.17v-3.14l.02.02ZM206.53,30.7c0-.5-.06-2.93-.06-3.29.37-.07,3.5-.67,4.14-.79-.14.62-.74,3.21-.8,3.49-.29.05-2.78.51-3.28.6h0ZM199.23,26.96c.4,0,1.06-.16,1.06-1.28,0-.9-.41-1.64-1.23-2.2-.78-.54-1.81-.82-3.06-.82l-1.24.13.32.37c2.59,3.4,3.61,3.79,4.15,3.79h0ZM195.98,33.77c.45,0,1.2-.19,1.2-1.43,0-.77-.3-1.45-.89-2.01-.57-.56-1.8-.93-3.75-1.12l-.47-.04.2.42c1.33,2.81,2.54,4.18,3.71,4.18Z"/>
      <path class="st1" d="M263.6,26.71c-1.2-.88-2.06-1.31-2.64-1.31-.1,0-.3.03-1.37.45-.69.27-2.7.62-5.93,1.04.1-2.59.27-4.38.52-5.27l.17-.84c0-.53-.39-1.01-1.19-1.47-.73-.42-1.61-.71-2.61-.88h-.14c-.57.23-.7.59-.7.86l.04.33c.52.73.88,1.55,1.13,2.54.26.97.39,2.68.4,5.04-2.52.39-4.31.59-5.29.59l-2.35-.23-2.45-.26-.05.05c-.13.07-.27.24-.27.57l.14.55c.53.53.93,1.13,1.25,1.86.32.74.61,2.36.84,4.81.26,2.72.82,3.98,1.76,3.98.45,0,.66-.6.75-2.12.39-.04,5.18-.47,5.7-.51,0,.53-.1,5.35-.1,5.35l-.18,5.59c0,.45.14,1.37.43,2.84.4,2.01.65,2.38,1,2.38h.1l.17-.12c.4-.37.93-1.4.93-6.11,0,0-.12-8.81-.14-10.07,3.37-.26,5.85-.4,7.32-.4.45,0,1.38,0,1.38-.55,0-.49-.25-1.09-1.16-1.38,1.55-2.39,2.65-3.85,3.25-4.3.93-.68,1.12-.97,1.12-1.2s-.14-.54-1.84-1.78v-.03ZM260.62,28.96c0,.45-.14,1.34-.43,2.66-.26,1.24-.68,2.02-1.26,2.32-.59.29-2.41.58-5.37.86,0-.53.03-5.91.03-6.32,2.74-.44,4.7-.66,5.79-.66.7,0,.92.16.99.25.16.19.24.49.24.9h.01ZM251.29,28.76v6.23c-.42.04-5.21.5-5.7.54,0-2.3-.14-4.29-.4-5.93.45-.06,5.57-.77,6.09-.84h0Z"/>
      <path class="st1" d="M296.48,23.12c1.61,1.3,2.8,1.93,3.64,1.93.51,0,1.11-.32,1.11-1.83,0-.61-.35-1.19-1.04-1.74-.66-.52-1.37-.83-2.12-.94-.71-.11-1.9-.19-3.64-.24h-.28l-.07.3c0,.26.19.7,2.4,2.51h0ZM315.1,46.01c-4.11-.41-7.43-1.19-9.87-2.31-2.38-1.11-4.55-2.66-6.46-4.6.37-.81.76-1.94,1.16-3.41l.86-3c.14-.39.3-.68.47-.85l.4-.71c0-.28-.26-.6-.91-1.11-.36-.28-.74-.44-1.11-.62,2.83-.51,5.84-.94,8.99-1.26.68-.41.96-.75.96-1.11,0-.42-.37-.78-1.11-1.11-.67-.29-1.39-.43-2.14-.43-1.2,0-2.42.33-3.61.99-4.23,1.81-9.6,2.79-15.93,2.88h-.49l.28.42c.66.97,1.69,1.46,3.06,1.46,1.45,0,4.29-.51,8.38-1.5-.03.09-.12.14-.12.25,0,.03.13,1.3.13,1.3,0,1.25-.41,3.24-1.2,5.85-.45-.51-1.81-2.08-1.81-2.08-.97-1.25-1.73-2.02-2.3-2.36-.56-.36-1.13-.54-1.68-.54-.4,0-1.6,0-1.6.77l.11.44h.1c2.11.96,4.25,2.84,6.39,5.57-2.16,2.85-6.29,4.74-12.32,5.59l-.04.52c1,.31,1.94.46,2.78.46,1.14,0,2.92-.36,5.31-1.07,2.32-.69,4.27-1.95,5.84-3.68,1.84,2.07,3.62,3.83,5.3,5.2,1.79,1.44,3.08,2.15,3.93,2.15.65,0,2.01-.23,4.14-.71l4.17-.82v-.53l-.06-.04Z"/>
      <path class="st1" d="M356.35,45.22c-1.57-.38-3.07-1.04-4.48-1.98-1.39-.95-2.76-2.19-4.04-3.67-1.27-1.47-2.51-3.25-3.71-5.26,0-.14.07-1.47.09-1.8,1.41-.27,3.41-.53,6.03-.77l4.78-.49c.78-.13.9-.55.9-.79,0-.43-.4-.83-1.24-1.28-.76-.41-1.7-.62-2.77-.62-.09,0-.25,0-2.59.86-1.41.52-3.11.9-5,1.14.07-3.43.26-5.68.55-6.65.34-1.08.5-1.76.5-2.11,0-.49-.22-.9-.62-1.17-.34-.25-.9-.5-1.65-.74-.74-.23-1.49-.35-2.22-.35-.46,0-.74.25-.74.66,0,.2.12.4.35.59.97,1.14,1.48,3.28,1.48,6.32,0,0-.09,3.48-.1,3.88-.42.06-9.29,1.27-9.29,1.27l.28.37c.68.87,1.71,1.31,3.05,1.31.79,0,1.92-.17,3.37-.51,0,0,1.78-.38,2.54-.55-.57,6.77-4,11.44-10.25,13.85l.08.52c2.04.1,4.35-.79,6.85-2.66,2.37-1.76,4.08-4.49,5.15-8.05,1.49,2.68,3.17,5.26,5.05,7.63,2.75,3.46,3.85,3.86,4.44,3.86,1.98,0,4.86-.34,8.59-1.03v-.52l-5.37-1.24v-.02Z"/>
      <path class="st1" d="M389.34,22.03c.43.31.71.57.89.8-.23.3-2.3,2.94-2.3,2.94l.75-.19c1.06-.26,1.98-.88,2.79-1.75.19.21.57.65.57.65.43.52.84.83,1.25.95l.13.04.11-.08c.35-.25.52-.56.52-.92,0-.62-.47-1.32-1.35-2.11.19-.22.65-.75.65-.75.49-.55.73-1.12.73-1.67s-.65-.88-2.11-1.11l-.36-.05.05.36c.02.13.03.27.03.41,0,.63-.24,1.29-.66,1.97-.29-.14-.93-.46-.93-.46-.64-.33-1.2-.49-1.68-.46l-.46.03.25.39c.18.28.55.61,1.13,1.02h0ZM387.45,31.48l.75-.13c.91-.18,2.04-.97,3.41-2.3.27.28,1.36,1.42,1.36,1.42l.76.17.04-.22.11-.58c0-.56-.45-1.25-1.27-2.04.14-.19.4-.54.4-.54.3-.37.45-.76.45-1.13,0-.06,0-.12-.01-.18l-.02-.11-.09-.07c-.46-.34-.82-.5-1.11-.5s-.67.18-.82,1.01c-.06.38-.12.56-.18.66-.62-.39-1.18-.61-1.69-.61l-1.16.15.59.39c.67.48,1.12.88,1.38,1.22-.24.29-1.05,1.27-1.05,1.27l-1.87,2.15.02-.03ZM405.8,31.2c-.81-.84-1.51-1.25-2.13-1.25l-1.65.33c-.77.18-1.79.28-2.98.31.13-.59.95-4.42.95-4.42.45-2,.7-2.71.83-2.95.19-.34.41-.6.66-.77.37-.27.53-.48.53-.69s-.11-.47-1.47-1.31c-1.29-.82-1.55-.88-1.7-.88-.08,0-.16,0-1.25.47-.66.28-1.6.54-2.79.79l-.57.12.46.36c.58.45,1.16.68,1.73.68l.98-.15.85-.15c.14,0,.42,0,.42.74,0,.39-.1.83-.24,1.29-.94,0-2.2.11-3.76.35l-.44.06.26.36c.38.53.97.79,1.72.79l1.8-.14s.08.01.16.02c-.08.4-.32,1.54-.38,1.84-.35.03-3.73.34-3.73.34l.09.31c.13.44.51.96,1.55.96l1.17-.11s.38-.04.67-.07c-.08.49-.33,2.02-.38,2.32-.38.04-10.47,1.19-10.96,1.24-.05-.38-.23-1.75-.28-2.11.34-.08,1.09-.25,1.09-.25l1.28-.33.14-.11.14-.09c.19-.11.29-.28.29-.46,0-.07-.02-.14-.05-.22l-.03-.06-.05-.04c-.29-.23-.62-.35-.98-.35-.31,0-.73.12-1.29.36-.43.17-.67.23-.85.27-.06-.36-.27-1.47-.32-1.8.31-.1,1.25-.4,1.25-.4.61-.19,1.42-.52,1.42-1.1,0-.23-.09-.75-.93-.75-.37,0-.83.13-1.39.38,0,0-.45.16-.74.26-.05-.32-.13-.77-.13-.77,0,0-.07-.8-.1-1.06.25-.15,2.87-1.73,2.87-1.73v-.17c-.05-.43-.35-.8-.89-1.09-.49-.29-.96-.43-1.4-.43-.68,0-.75.37-.75.52,0,.76-.31,1.49-.9,2.16-1.55.01-2.17.21-2.17.69l.41.61c.91.82,1.8,3.64,2.65,8.31-.44.09-3.27.63-3.57.69-.54-.92-1.06-1.47-1.61-1.59l-.34-.07.02.34c.06,1.34-.16,2.39-.64,3.12-.54.83-.8,1.49-.8,2,0,1.25.63,1.43,1,1.43.54,0,1.11-.42,1.75-1.3.56-.77.84-1.67.88-2.65,1.23-.32,4.52-.78,9.87-1.39,5.54-.63,8.88-.95,9.93-.95l1.28.05.24.05c-.01.08-.13.54-1.63,1.95l.26.45,2.73-.78,1.19-.1c.91,0,1.96-.08,1.96-.75,0-.18-.09-.44-1.21-1.57v.04ZM402.12,39.25c-.69-.46-1.54-.69-2.52-.69-.69,0-1.72.15-3.13.46-1.35.29-2.34.44-2.95.44-.02,0-.63.06-.63.06-.09,0-.15-.04-.21-.12,1.18-1.04,2.42-1.96,3.7-2.71.79-.32.99-.75.99-1.1,0-.07,0-.13-.02-.19l-.02-.09-.07-.06c-1.3-1.04-2.5-1.57-3.57-1.57-.08,0-2.74.87-2.74.87l-2.82.66c-.96.15-1.95.22-2.96.21h-.6l.4.45c.78.87,1.71,1.3,2.78,1.26.07,0,5.12-1.59,5.34-1.65h.44c.08,0,.1.23.1.36,0,.15-.2.75-1.71,2.67-.57-.42-1.17-.67-1.8-.67s-.68.35-.68.5c0,.18.12.36.74.9.26.22.41.39.51.53-5.5.7-9.46,1.12-11.71,1.25l-.25.02-.04.3c0,.21.12.49,1.03,1.14.67.46,1.24.68,1.74.68.23,0,.94-.09,4.36-.85,2.37-.53,4.13-.82,5.35-.9.16.95.26,1.95.26,3.01,0,2.72-.53,4.1-1.57,4.1-.46,0-1.62-.2-3.45-.6l-.2.48c1.91,1.23,3.12,2.37,3.59,3.41l.11.24.24-.1c2.23-.95,3.36-3.25,3.36-6.84,0-1.02-.13-2.33-.36-3.86.5-.02,4.23-.14,4.23-.14l5.04.17c.75,0,.83-.45.83-.65,0-.42-.36-.87-1.11-1.36l-.02-.02Z"/>
    </g>
    <g>
      <path class="st1" d="M151.04,77.32c0,1.03-.05,1.74-.25,2.04-.16.27-.49.38-1.15.41l-1.31.08v.83c1.42-.05,2.7-.08,4.04-.08,1.26,0,2.54.02,3.96.08v-.83l-1.31-.08c-.66-.03-.98-.14-1.15-.41-.19-.3-.25-1.01-.25-2.04v-11.54c0-1.04.03-1.91.11-2.73h4.23c.82,0,1.04.25,1.09.9l.11,2.15h.84c0-1.47.06-2.97.19-4.39-.99,0-1.97.03-2.95.03-.98.03-1.96.05-2.95.05h-3.96c-1.97,0-3.93-.08-5.9-.08.14,1.42.19,2.92.19,4.39h.85l.11-2.15c.05-.66.27-.9,1.09-.9h4.23c.08.82.11,1.69.11,2.73v11.54h.03Z"/>
      <path class="st1" d="M161.46,77.81c0,.74-.03,1.28-.14,1.58-.11.24-.41.35-.87.38l-1.23.08v.83c.96-.02,2.05-.08,3.39-.08s2.43.05,3.38.08v-.83l-1.23-.08c-.46-.03-.76-.14-.87-.38-.11-.3-.14-.85-.14-1.58v-5.78c0-1.12,1.69-2.56,3.36-2.56,1.86,0,3.14,1.2,3.14,3.46v7.75c.63-.02,1.42-.08,2.18-.08s1.56.05,2.24.08v-.83l-1.12-.08c-.46-.03-.76-.14-.88-.38-.11-.3-.13-.85-.13-1.58v-5.26c0-2.97-1.31-4.74-4.5-4.74-1.09,0-1.61.16-2.21.68l-2.02,1.75h-.06v-9.22l-.25-.22c-1.36.55-2.81.79-4.26,1.01v.76h1.53c.6,0,.68.49.68,1.12v14.12h0Z"/>
      <path class="st1" d="M181.02,68.7c1.97,0,2.89,2.08,2.89,4.61-1.96.11-4.26.17-6.49-.08-.14-2.98,1.5-4.53,3.6-4.53ZM181.16,67.81c-.93,0-1.72.3-2.67.74-.6.27-1.17.68-1.69,1.09-1.25.98-1.96,2.57-1.96,5.21,0,3.68,2.18,6.31,6.3,6.31,1.86,0,4.18-1.2,4.37-1.53l.54-.93-.35-.27c-1.04.63-2.07,1.28-3.38,1.28-3.36,0-4.94-2.19-4.94-5.38h3.98c1.64,0,3.3-.11,4.94-.38.05-.38.05-.76.05-1.15,0-3.08-2.21-4.99-5.18-4.99h0Z"/>
      <path class="st1" d="M209.84,78.31l-.25-.27c-1.25.93-3.57,1.64-5.54,1.64-5.4,0-8.98-3.49-8.98-8.89,0-4.64,2.7-8.38,7.83-8.38,1.01,0,2.18.16,3.06.46,1.25.46,2.35.93,2.35,1.69v1.96h.84c0-1.42.25-2.87.52-4.15-1.31-.46-3.76-1.12-6.31-1.12-3.06,0-5.84.93-7.88,2.62-2.1,1.72-3.33,4.2-3.33,7.34,0,6.19,4.42,9.93,10.97,9.93,1.66,0,4.36-.52,5.95-1.48l.76-1.36h0Z"/>
      <path class="st1" d="M212.49,77.81c0,.74-.03,1.28-.13,1.58-.11.24-.41.35-.87.38l-1.23.08v.83c.96-.02,2.05-.08,3.38-.08s2.43.05,3.38.08v-.83l-1.23-.08c-.46-.03-.76-.14-.87-.38-.11-.3-.14-.85-.14-1.58v-5.78c0-1.12,1.69-2.56,3.36-2.56,1.86,0,3.14,1.2,3.14,3.46v7.75c.63-.02,1.42-.08,2.19-.08s1.55.05,2.23.08v-.83l-1.12-.08c-.46-.03-.76-.14-.87-.38-.11-.3-.14-.85-.14-1.58v-5.26c0-2.97-1.31-4.74-4.5-4.74-1.09,0-1.61.16-2.21.68l-2.02,1.75h-.05v-9.22l-.25-.22c-1.37.55-2.81.79-4.26,1.01v.76h1.53c.6,0,.68.49.68,1.12v14.12h0Z"/>
      <path class="st1" d="M230.27,67.91l-.25-.11c-1.01.43-2.65.95-4.26,1.12v.77h1.01c.57,0,.85.08,1.01.3.13.22.19.82.19,1.69v6.13c0,.74-.03,1.28-.14,1.58-.11.24-.41.35-.87.38l-1.26.08v.83c.98-.02,2.07-.08,3.41-.08s2.43.05,3.41.08v-.83l-1.25-.08c-.46-.03-.77-.14-.87-.38-.11-.3-.14-.85-.14-1.58v-9.89h0ZM228.99,61.85c-.79,0-1.5.74-1.5,1.53s.71,1.5,1.5,1.5,1.53-.71,1.53-1.5-.74-1.53-1.53-1.53Z"/>
      <path class="st1" d="M236.95,72.03c0-1.12,1.69-2.56,3.36-2.56,1.86,0,3.14,1.2,3.14,3.46v7.75c.63-.02,1.42-.08,2.18-.08s1.56.05,2.24.08v-.83l-1.12-.08c-.46-.03-.77-.14-.87-.38-.11-.3-.14-.85-.14-1.58v-5.26c0-2.97-1.31-4.74-4.5-4.74-1.09,0-1.61.16-2.21.68l-2.02,1.75h-.05v-2.32l-.25-.11c-1.01.43-2.64.95-4.25,1.12v.77h1.01c.57,0,.84.08,1.01.3.14.22.19.82.19,1.69v6.13c0,.74-.03,1.28-.14,1.58-.11.24-.41.35-.87.38l-1.23.08v.83c.96-.02,2.05-.08,3.38-.08s2.43.05,3.39.08v-.83l-1.23-.08c-.46-.03-.76-.14-.87-.38-.11-.3-.14-.85-.14-1.58v-5.78h-.01Z"/>
      <path class="st1" d="M254.22,68.7c1.97,0,2.89,2.08,2.89,4.61-1.96.11-4.26.17-6.5-.08-.14-2.98,1.5-4.53,3.6-4.53h0ZM254.36,67.81c-.93,0-1.72.3-2.67.74-.6.27-1.18.68-1.7,1.09-1.25.98-1.96,2.57-1.96,5.21,0,3.68,2.18,6.31,6.3,6.31,1.86,0,4.17-1.2,4.37-1.53l.54-.93-.35-.27c-1.04.63-2.07,1.28-3.39,1.28-3.36,0-4.94-2.19-4.94-5.38h3.98c1.64,0,3.3-.11,4.94-.38.05-.38.05-.76.05-1.15,0-3.08-2.21-4.99-5.18-4.99h0Z"/>
      <path class="st1" d="M260.68,76.7c0,1.28-.03,2.59-.3,3.79,1.34.46,2.51.66,3.82.66,3.03,0,6.03-1.58,6.03-4.58,0-2.13-1.53-2.95-4.78-3.49-2.07-.36-2.97-.98-2.97-2.16,0-.93.36-2.21,2.68-2.21,1.56,0,3.17.82,3.17,2.24v.63h.76c.03-1.09.06-2.1.14-3.08-1.06-.38-2.24-.68-3.52-.68-2.57,0-5.13,1.04-5.13,3.98,0,1.66,1.01,2.48,2.32,2.97s2.81.79,4.01,1.09c.85.22,1.31.93,1.31,1.8,0,1.47-1.47,2.48-3.19,2.48-1.59,0-3.52-.63-3.52-2.32v-1.12h-.83Z"/>
      <path class="st1" d="M277.21,68.7c1.97,0,2.89,2.08,2.89,4.61-1.96.11-4.25.17-6.49-.08-.14-2.98,1.5-4.53,3.6-4.53h0ZM277.35,67.81c-.93,0-1.72.3-2.67.74-.6.27-1.17.68-1.69,1.09-1.26.98-1.97,2.57-1.97,5.21,0,3.68,2.18,6.31,6.3,6.31,1.86,0,4.18-1.2,4.37-1.53l.54-.93-.35-.27c-1.04.63-2.07,1.28-3.39,1.28-3.36,0-4.94-2.19-4.94-5.38h3.98c1.64,0,3.3-.11,4.94-.38.05-.38.05-.76.05-1.15,0-3.08-2.21-4.99-5.19-4.99h.02Z"/>
      <path class="st1" d="M290.5,74.77c0,4.99,2.73,6.38,7.37,6.38,5.51,0,7.72-2.35,7.72-8.18v-7.88c0-1.04.05-1.75.25-2.05.16-.27.49-.35,1.14-.41l1.2-.08v-.83c-1.2.03-2.18.08-3.27.08-.98,0-2.07-.05-3.17-.08v.83l1.2.08c.65.05.98.14,1.14.41.19.3.24,1.01.24,2.05v8.72c0,4.53-2.67,5.64-5.62,5.64-3.6,0-5.62-1.12-5.62-4.99v-9.38c0-1.04.05-1.75.24-2.05.16-.27.49-.38,1.15-.41l1.31-.08v-.83c-1.42.06-2.7.08-3.96.08-1.34,0-2.62-.02-4.04-.08v.83l1.31.08c.66.03.98.14,1.15.41.19.3.24,1.01.24,2.05v9.68h.02Z"/>
      <path class="st1" d="M311.75,72.03c0-1.12,1.69-2.56,3.36-2.56,1.86,0,3.14,1.2,3.14,3.46v7.75c.63-.02,1.42-.08,2.18-.08s1.55.05,2.24.08v-.83l-1.12-.08c-.46-.03-.76-.14-.87-.38-.11-.3-.14-.85-.14-1.58v-5.26c0-2.97-1.31-4.74-4.5-4.74-1.09,0-1.61.16-2.21.68l-2.02,1.75h-.05v-2.32l-.25-.11c-1.01.43-2.65.95-4.26,1.12v.77h1.01c.57,0,.85.08,1.01.3.14.22.19.82.19,1.69v6.13c0,.74-.03,1.28-.14,1.58-.11.24-.41.35-.87.38l-1.23.08v.83c.95-.02,2.04-.08,3.39-.08s2.43.05,3.38.08v-.83l-1.23-.08c-.46-.03-.76-.14-.87-.38-.11-.3-.14-.85-.14-1.58v-5.78h0Z"/>
      <path class="st1" d="M327.25,67.91l-.24-.11c-1.01.43-2.65.95-4.26,1.12v.77h1.01c.57,0,.84.08,1.01.3.14.22.19.82.19,1.69v6.13c0,.74-.03,1.28-.14,1.58-.11.24-.41.35-.87.38l-1.25.08v.83c.98-.02,2.07-.08,3.41-.08s2.43.05,3.41.08v-.83l-1.26-.08c-.46-.03-.76-.14-.87-.38-.11-.3-.14-.85-.14-1.58v-9.89h0ZM325.96,61.85c-.79,0-1.5.74-1.5,1.53s.71,1.5,1.5,1.5,1.53-.71,1.53-1.5-.74-1.53-1.53-1.53Z"/>
      <path class="st1" d="M341.24,70.73c.38-.82.84-1.77,1.53-1.83l.85-.05v-.76c-.85.03-1.72.08-2.57.08s-1.72-.05-2.56-.08v.76l1.12.05c.82.03.87.82.14,2.7l-1.15,2.89c-.52,1.28-1.12,2.57-1.69,3.82l-3.25-7.86c-.46-1.15-.27-1.53.44-1.56l1.34-.05v-.76c-1.06.03-2.1.08-3.16.08s-2.13-.05-3.19-.08v.76l.93.05c.52.03.68.52.85.9l4.69,11h1.37c.38-.93.66-1.97,1.12-2.98l3.22-7.09h-.03Z"/>
      <path class="st1" d="M350.08,68.7c1.97,0,2.89,2.08,2.89,4.61-1.96.11-4.26.17-6.49-.08-.14-2.98,1.5-4.53,3.6-4.53h0ZM350.22,67.81c-.93,0-1.72.3-2.67.74-.6.27-1.18.68-1.69,1.09-1.26.98-1.96,2.57-1.96,5.21,0,3.68,2.18,6.31,6.3,6.31,1.86,0,4.17-1.2,4.37-1.53l.54-.93-.35-.27c-1.04.63-2.07,1.28-3.38,1.28-3.36,0-4.94-2.19-4.94-5.38h3.98c1.64,0,3.3-.11,4.94-.38.05-.38.05-.76.05-1.15,0-3.08-2.21-4.99-5.18-4.99h0Z"/>
      <path class="st1" d="M358.26,77.81c0,.74-.03,1.28-.14,1.58-.11.24-.41.35-.87.38l-1.25.08v.83c.98-.02,2.07-.08,3.41-.08s2.43.05,3.85.08v-.83l-1.42-.08c-.63-.03-1.04-.14-1.14-.38-.11-.3-.14-.85-.14-1.58v-4.69c0-1.74,1.2-3,2.4-3,.99,0,1.56.6,1.86,1.26h.57l.25-3.3c-.22-.13-.79-.27-1.26-.27-.71,0-1.64.33-2.29,1.12l-1.47,1.75h-.05v-2.75l-.24-.11c-1.01.43-2.65.95-4.26,1.12v.77h1.01c.57,0,.85.08,1.01.3.14.22.19.82.19,1.69v6.13l-.02-.02Z"/>
      <path class="st1" d="M366.49,76.7c0,1.28-.03,2.59-.3,3.79,1.34.46,2.51.66,3.82.66,3.03,0,6.03-1.58,6.03-4.58,0-2.13-1.53-2.95-4.77-3.49-2.07-.36-2.97-.98-2.97-2.16,0-.93.35-2.21,2.67-2.21,1.56,0,3.17.82,3.17,2.24v.63h.76c.03-1.09.05-2.1.14-3.08-1.06-.38-2.24-.68-3.52-.68-2.56,0-5.13,1.04-5.13,3.98,0,1.66,1.01,2.48,2.32,2.97s2.81.79,4.01,1.09c.85.22,1.31.93,1.31,1.8,0,1.47-1.47,2.48-3.19,2.48-1.58,0-3.52-.63-3.52-2.32v-1.12h-.83Z"/>
      <path class="st1" d="M381.25,67.91l-.24-.11c-1.01.43-2.65.95-4.26,1.12v.77h1.01c.57,0,.85.08,1.01.3.14.22.19.82.19,1.69v6.13c0,.74-.03,1.28-.14,1.58-.11.24-.41.35-.87.38l-1.25.08v.83c.98-.02,2.07-.08,3.41-.08s2.43.05,3.41.08v-.83l-1.25-.08c-.46-.03-.76-.14-.87-.38-.11-.3-.14-.85-.14-1.58v-9.89h-.01ZM379.97,61.85c-.79,0-1.5.74-1.5,1.53s.71,1.5,1.5,1.5,1.53-.71,1.53-1.5-.74-1.53-1.53-1.53Z"/>
      <path class="st1" d="M385.91,70.18v7.86c0,2.21,1.23,2.89,2.67,2.89.57,0,1.53-.05,1.78-.33l1.31-1.45-.35-.46c-.38.22-.9.52-1.61.52-1.15,0-1.5-.63-1.5-1.88v-7.15h3.49l.25-1.48-3.74.16v-1.04c0-1.15.14-2.67.3-3.87l-.33-.3c-.46.3-1.34.74-2.32,1.04.08.74.11,1.45.11,2.16v1.91l-2.13.96v.57s2.07-.11,2.07-.11Z"/>
      <path class="st1" d="M399.42,78.26l-3.14-7.59c-.57-1.47-.11-1.75.66-1.77l1.04-.05v-.76c-1.06.03-2.1.08-3.16.08s-2.1-.05-3.17-.08v.76l.49.05c.6.06.98.3,1.42,1.34l4.5,11.03-.63,1.67c-.52,1.25-1.39,3.47-2.97,3.58-.38.03-1.06-.3-1.39-.63h-.35l-.66,2.05c.3.19.9.41,1.37.41,2.29,0,3.27-1.37,4.15-3.36l5.54-12.77c1.04-2.4,1.64-3.25,2.29-3.3l.77-.05v-.76c-.88.03-1.72.08-2.6.08s-1.71-.05-2.59-.08v.76l.71.05c.98.08,1.39.38.98,1.39l-3.25,7.97v-.02Z"/>
      <path class="st1" d="M416.64,81.15c4.18,0,7.15-2.95,7.15-7.12,0-3.49-2.7-6.22-6.19-6.22-4.39,0-6.96,2.86-6.96,6.96,0,3.77,2.56,6.5,6,6.39h0ZM416.96,68.7c2.62,0,4.29,3.01,4.29,6.53,0,2.54-1.07,5.02-3.55,5.02-3.49,0-4.53-3.79-4.53-6.66,0-2.54.9-4.89,3.79-4.89h0Z"/>
      <path class="st1" d="M433.15,61.03c-.38-.16-.82-.3-1.23-.3-.76,0-1.75.33-2.46,1.15l-1.58,1.8c-.79.9-1.15,2.13-1.15,3.93v1.14l-1.88.85v.6l1.88-.11v7.71c0,.74-.03,1.28-.14,1.58-.11.24-.41.35-.87.38l-1.25.08v.83c.98-.02,2.07-.08,3.41-.08s2.43.05,3.41.08v-.83l-1.25-.08c-.46-.03-.76-.14-.87-.38-.11-.3-.14-.85-.14-1.58v-7.71h3.38l.19-1.45-3.58.11v-2.32c0-3.11.3-3.9,1.99-3.9.68,0,1.31.3,1.8.76l.33-.16v-2.1h.01Z"/>
      <path class="st1" d="M457.51,65.08c0-1.03.05-1.74.24-2.04.16-.27.49-.38,1.15-.41l1.31-.08v-.83c-1.42.06-2.7.08-3.96.08-1.34,0-2.62-.02-4.04-.08v.83l1.31.08c.65.03.98.14,1.15.41.19.3.24,1.01.24,2.04v4.85c-.33.03-1.06.06-2.26.06h-6.39c-1.2,0-1.94-.03-2.26-.06v-4.85c0-1.03.05-1.74.24-2.04.16-.27.49-.38,1.15-.41l1.31-.08v-.83c-1.42.06-2.7.08-3.96.08-1.34,0-2.62-.02-4.04-.08v.83l1.31.08c.66.03.98.14,1.15.41.19.3.24,1.01.24,2.04v12.24c0,1.03-.05,1.74-.24,2.04-.16.27-.49.38-1.15.41l-1.31.08v.83c1.42-.05,2.7-.08,4.04-.08,1.26,0,2.54.02,3.96.08v-.83l-1.31-.08c-.65-.03-.98-.14-1.15-.41-.19-.3-.24-1.01-.24-2.04v-6.08c.33-.03,1.06-.06,2.26-.06h6.39c1.2,0,1.94.03,2.26.06v6.08c0,1.03-.05,1.74-.24,2.04-.16.27-.49.38-1.15.41l-1.31.08v.83c1.42-.05,2.7-.08,4.04-.08,1.26,0,2.54.02,3.96.08v-.83l-1.31-.08c-.65-.03-.98-.14-1.15-.41-.19-.3-.24-1.01-.24-2.04v-12.24Z"/>
      <path class="st1" d="M466.87,81.15c4.17,0,7.15-2.95,7.15-7.12,0-3.49-2.7-6.22-6.19-6.22-4.39,0-6.96,2.86-6.96,6.96,0,3.77,2.56,6.5,6,6.39h0ZM467.19,68.7c2.62,0,4.29,3.01,4.29,6.53,0,2.54-1.06,5.02-3.55,5.02-3.49,0-4.53-3.79-4.53-6.66,0-2.54.9-4.89,3.79-4.89h0Z"/>
      <path class="st1" d="M478.76,72.03c0-1.12,1.69-2.56,3.36-2.56,1.86,0,3.14,1.2,3.14,3.46v7.75c.63-.02,1.42-.08,2.18-.08s1.55.05,2.24.08v-.83l-1.12-.08c-.46-.03-.76-.14-.87-.38-.11-.3-.14-.85-.14-1.58v-5.26c0-2.97-1.31-4.74-4.5-4.74-1.09,0-1.61.16-2.21.68l-2.02,1.75h-.05v-2.32l-.25-.11c-1.01.43-2.65.95-4.26,1.12v.77h1.01c.57,0,.85.08,1.01.3.14.22.19.82.19,1.69v6.13c0,.74-.03,1.28-.14,1.58-.11.24-.41.35-.87.38l-1.23.08v.83c.95-.02,2.05-.08,3.39-.08s2.43.05,3.38.08v-.83l-1.23-.08c-.46-.03-.76-.14-.87-.38-.11-.3-.13-.85-.13-1.58v-5.78h-.01Z"/>
      <path class="st1" d="M503.29,70.29l.68-1.12-.11-.33-3.87.11c-.87-.79-2.13-1.15-3.33-1.15-1.04,0-2.71.35-3.96,1.17-1.23.79-2.07,1.96-2.07,3.71,0,2.84,2.35,3.63,3.22,3.66v.05l-2.1,1.61c-.24.33-.41.74-.41,1.15,0,.79.6,1.28,1.8,1.61l-2.37,1.28c-.57.52-.76,1.39-.76,2.18,0,2.43,2.57,4.09,5.87,4.09,4.61,0,7.39-2.97,7.39-5.87,0-1.36-.76-3.38-3.22-3.38h-4.36c-.82,0-2.07-.06-2.07-1.09,0-.6.87-1.15,1.25-1.53.19.02.38.05.57.05,1.25,0,2.62-.46,3.82-1.31,1.09-.74,1.83-1.91,1.83-3.38,0-.52-.08-1.04-.3-1.53h2.51v.02ZM498.79,72.69c0,1.66-1.17,2.89-2.78,2.89-1.74,0-3.08-1.23-3.08-3.63,0-1.8.9-3.22,2.73-3.22,2.27,0,3.14,1.96,3.14,3.96h-.01ZM496.06,87.48c-2.18,0-3.98-1.17-3.98-3.52,0-1.72,1.53-2.78,2.29-2.87,1.23-.11,2.19-.11,2.89-.11,3.08,0,3.84.85,3.84,2.46,0,2.18-2.04,4.04-5.05,4.04h0Z"/>
      <path class="st1" d="M514.56,71.73l.27-.19,9.5,9.14c.85-.02,1.5-.08,2.16-.08s1.28.05,1.8.08v-.83l-.58-.06c-.49-.05-1.01-.49-1.69-1.12l-9.01-8.5,7.26-6.54c.68-.63,1.42-1.01,2.13-1.04l1.14-.06v-.83c-.65.03-1.42.08-2.18.08s-1.56-.05-2.43-.08v.75c0,.19-.38.66-.79,1.06l-7.58,7.39v-5.83c0-1.03.05-1.74.24-2.04.17-.27.49-.38,1.14-.41l1.31-.08v-.83c-1.42.06-2.7.08-3.96.08-1.34,0-2.62-.02-4.04-.08v.83l1.31.08c.65.03.98.14,1.14.41.19.3.25,1.01.25,2.04v12.24c0,1.03-.05,1.74-.25,2.04-.16.27-.49.38-1.14.41l-1.31.08v.83c1.42-.05,2.7-.08,4.04-.08,1.26,0,2.54.02,3.96.08v-.83l-1.31-.08c-.65-.03-.98-.14-1.14-.41-.19-.3-.24-1.01-.24-2.04v-5.59h0Z"/>
      <path class="st1" d="M533.87,81.15c4.18,0,7.15-2.95,7.15-7.12,0-3.49-2.7-6.22-6.2-6.22-4.39,0-6.96,2.86-6.96,6.96,0,3.77,2.56,6.5,6,6.39h.01ZM534.2,68.7c2.62,0,4.29,3.01,4.29,6.53,0,2.54-1.07,5.02-3.55,5.02-3.49,0-4.53-3.79-4.53-6.66,0-2.54.9-4.89,3.79-4.89h0Z"/>
      <path class="st1" d="M545.77,72.03c0-1.12,1.69-2.56,3.36-2.56,1.86,0,3.14,1.2,3.14,3.46v7.75c.63-.02,1.42-.08,2.19-.08s1.55.05,2.24.08v-.83l-1.12-.08c-.46-.03-.76-.14-.87-.38-.11-.3-.13-.85-.13-1.58v-5.26c0-2.97-1.31-4.74-4.51-4.74-1.09,0-1.61.16-2.21.68l-2.02,1.75h-.05v-2.32l-.25-.11c-1.01.43-2.64.95-4.25,1.12v.77h1.01c.57,0,.85.08,1.01.3.14.22.19.82.19,1.69v6.13c0,.74-.03,1.28-.14,1.58-.11.24-.41.35-.87.38l-1.23.08v.83c.96-.02,2.05-.08,3.39-.08s2.43.05,3.38.08v-.83l-1.23-.08c-.46-.03-.76-.14-.87-.38-.11-.3-.14-.85-.14-1.58v-5.78h-.02Z"/>
      <path class="st1" d="M570.3,70.29l.68-1.12-.11-.33-3.87.11c-.87-.79-2.13-1.15-3.33-1.15-1.04,0-2.7.35-3.96,1.17-1.22.79-2.07,1.96-2.07,3.71,0,2.84,2.35,3.63,3.22,3.66v.05l-2.1,1.61c-.24.33-.41.74-.41,1.15,0,.79.6,1.28,1.8,1.61l-2.37,1.28c-.57.52-.76,1.39-.76,2.18,0,2.43,2.56,4.09,5.87,4.09,4.61,0,7.39-2.97,7.39-5.87,0-1.36-.77-3.38-3.22-3.38h-4.36c-.82,0-2.07-.06-2.07-1.09,0-.6.87-1.15,1.25-1.53.19.02.38.05.57.05,1.25,0,2.62-.46,3.82-1.31,1.09-.74,1.83-1.91,1.83-3.38,0-.52-.08-1.04-.3-1.53h2.51v.02ZM565.8,72.69c0,1.66-1.17,2.89-2.79,2.89-1.75,0-3.08-1.23-3.08-3.63,0-1.8.9-3.22,2.73-3.22,2.26,0,3.14,1.96,3.14,3.96ZM563.06,87.48c-2.18,0-3.98-1.17-3.98-3.52,0-1.72,1.53-2.78,2.29-2.87,1.23-.11,2.18-.11,2.89-.11,3.09,0,3.85.85,3.85,2.46,0,2.18-2.04,4.04-5.05,4.04Z"/>
    </g>
  </g>
  <g>
    <path class="st2" d="M67.12,82.85c.91,0,5.11-1.5,6.75-2.37,8.8-4.64,16.48-10.94,21.49-19.63,4.02-6.99,4.27-15.61,4.93-23.45.85-10.13.77-20.27.61-30.43,0-.73-14.55-2.33-16.04-2.47-5.89-.55-13.79-.92-17.73-.92s-11.84.37-17.74.92c-1.49.14-16.03,1.74-16.04,2.47-.16,10.17-.24,20.3.61,30.43.66,7.83.91,16.46,4.93,23.45,5.01,8.7,12.69,14.99,21.49,19.63,1.64.87,5.84,2.37,6.75,2.37h-.01Z"/>
    <path class="st0" d="M86.97,45.55s.07,0,.1,0c-.03,0-.06,0-.1-.02h0ZM85.06,46.77c.06.02.12.05.17.07-.05-.03-.11-.06-.17-.08h0ZM96.42,28.23s.04-.51.06-.54c.37-.12,2.02-.78,2.33-2.86.05-.32.06-.68.03-1.07l-.09.08c-.33.31-1.32,1.24-1.87,1.12-.14-.03-.24-.13-.3-.29,0-2.08-.16-3.73-.38-5.87.59-.32,1.83-1.25,1.83-3.21,0-.26-.03-.54-.08-.84l-.1.11c-.32.37-1.18,1.36-1.69,1.3-.12-.02-.21-.09-.28-.22l-.03-.28c-.41-4.41-1.32-6.59-3.12-7.51,0,0-.11-.04-.11-.05,0,.03.09.17.18.3.26.39.7,1.04.87,1.81.29,1.31.39,2.37.39,3.23,0,1-.14,1.75-.29,2.34-.24.44-.58.71-1.01.81-1,.24-2.13-.86-2.51-1.76-.01-.03-.03-.06-.06-.06-.08,0-.22.24-.29.41-.32,1.18.08,2.66.87,3.23.29.21.76.38,1.33,0,.29-.2.51-.27.66-.22.08.02.14.08.18.19-.38,1.05-.81,2.11-1.28,3.16-.27.24-.58.37-.91.39-1.12.07-2.06-1.31-2.28-2.29,0-.04-.02-.07-.04-.07-.08-.02-.28.21-.38.37-.57,1.16-.44,2.77.28,3.52.27.28.72.54,1.4.24.35-.15.58-.19.72-.12.06.03.1.09.12.2-.55,1.03-1.15,2.05-1.81,3.06-.25.16-.51.24-.82.23-1.19,0-1.97-1.37-2.06-2.32,0-.04-.01-.06-.03-.06-.08-.03-.32.19-.46.35-.74,1.1-.85,2.63-.24,3.41.34.43.87.55,1.47.33.37-.13.6-.17.71-.09.04.03.06.07.05.15-.64.86-1.31,1.71-2.03,2.54-.47.31-.94.43-1.44.35-1.26-.19-2.04-2-2.04-3.2,0-.05-.01-.09-.04-.1-.1-.04-.38.18-.54.33-.95,1.2-1.21,3.08-.57,4.12.24.38.7.81,1.55.64.45-.09.71-.08.79.04.05.07.04.17-.05.31l-2.06,1.91c-.51.33-1.3.65-2.12.35-1.38-.49-1.87-2.71-1.61-4.08.01-.07,0-.11-.03-.13-.11-.07-.49.12-.69.26-1.34,1.16-2.04,3.26-1.53,4.57.19.49.62,1.08,1.63,1.06.56,0,.86.07.92.24.05.14-.07.33-.38.57-.28.16-.6.37-.86.69-.61.75-.89,1.35-.96,2.09l-.06.76c-.04.59-.08,1.2-.21,1.78-.11.55-.28,1.05-.51,1.47-1.29,2.34-4.29,3.56-7.44,4.02v-4.39c3.84-.12,5.49-1.79,5.49-5.54,0-3.19-1.15-4.58-3.85-4.64-.54,0-1.1.08-1.64.26v-2.44c1.92-.87,4.1-1.86,6.37-2.44,5.22-1.33,9.41-4.21,10.88-7.29.2-.44.35-.9.44-1.36-.28.18-3.77,2.39-6.37,2.95l-.36.06c-.35.07-.72.14-.9-.02-.09-.07-.13-.19-.13-.35,0-1.41.77-2.51,2.19-3.11l.14-.06c3.16-1.34,5.62-2.39,6.81-4.02.31-.44.53-.91.65-1.44-.26.14-3.92,2.07-6.28,2.41l-.13.02c-.28.05-.76.13-.98-.11-.13-.14-.16-.37-.08-.69.27-1.07.73-1.7,1.57-2.19.93-.53,1.92-.98,2.89-1.4,1.63-.73,3.09-1.38,3.82-2.25.04-.05.08-.09.12-.15,0-.01.02-.02.03-.04.13-.2.23-.41.28-.64l-3.43,1.08-.67.21c-.98.31-2,.63-2.32.31-.12-.12-.14-.31-.05-.59.17-.59.33-.93.6-1.32,1.29-1.83,3.89-3.76,7.01-3.21.52.1.78.06.8,0,0-.03-.08-.13-.49-.28-2.36-.86-4.55-.78-6.53.23-3.61,1.85-6.59,6.83-8.85,14.82-1.29,4.56-4.1,6.21-7,7.51v-10.18c1.05-.42,1.97-1.01,2.75-1.79,2.2-2.2,2.98-4.94,2.09-7.34-.72-1.94-2.44-3.28-4.37-3.42-.16-.01-.31-.02-.46-.02v-1.47c-3.62,0-11.11.34-16.95.88-2.1.2-15.33,1.71-15.34,2.35-.05,3.45-.1,6.87-.1,10.29,0,6.35.16,12.66.68,18.98l.2,2.47c.54,6.92,1.09,14.08,4.53,20.07,4.35,7.59,11.27,13.94,20.57,18.87.58.3,3.25,1.68,5.47,2.15h.03c.1.02.2.04.29.06.21.03.42.07.62.08v-10.91c3.1.04,7.91.08,9.19-.36,1.23-.43,2.02-1.37,2.23-2.66.24-1.49-.36-3.16-1.43-3.97-.15-.11-.35-.13-.41-.06-.04.05-.02.11.05.24.11.21.31.55.31,1.25,0,.65-.23,1.18-.67,1.6-1.2,1.12-3.65.97-3.67.97l-2.83-.03h-2.75s.06-.02.1-.03h-.1c1.59-.37,2.72-1.52,3.2-2.4,1.22-2.22.2-3.68-.13-4.11-.06-.06-.09-.1-.09-.1h.02l-.02-.03c.19,0,.37,0,.55-.02-.18,0-.35.02-.53.02l.02.02c.72,0,1.37-.08,1.97-.21-.44.09-.92.14-1.42.17,5.87-.34,7.11-5.64,7.79-8.53l.11-.48c.21-.86.75-2.37,2.05-2.77.83-.26,1.37-.57,1.77-.8l.48-.25s.16-.06.17-.07c.74.02.72.65.71,1.06,0,.17,0,.33.05.36.03.02.09,0,.17-.05.64-.39.95-1.57,1.04-2.25v-.14h0v-.03c.81.29.88.76.92,1.02.01.07.02.13.04.14.03,0,.09-.03.21-.12.59-.47.72-1.56.73-2.19v-.02h0v-.02c.99.06,1.09.62,1.13.89,0,.06.02.13.04.14,0,0,.04,0,.16-.13.51-.54.51-1.7.49-2.2v-.07h0v-.02c.64.05.78.53.87.82.03.1.06.2.09.2.02,0,.06,0,.15-.13.59-.75.55-1.88.46-2.3-.01-.03-.02-.07-.04-.09h0v-.02c.65.03.8.46.89.71.03.08.05.16.08.17.02,0,.07-.02.17-.15.47-.59.43-1.75.3-2.36.86-1.02,1.4-1.89,1.56-2.52.12-.48.19-.54.25-.54.1,0,.13.28.14.44-.14,1.54-.46,3.53-.92,5.57v.08c-.06.29-.12.57-.19.86h-.01v.02c-.29-.27-1.03-.36-1.19-.19-.08.08,0,.2.1.29.32.33.49.95.51,1.51,0,.08.01.16.02.24h-.01v.02c-.35-.18-.93-.22-1.05-.06-.06.08.02.2.1.28.37.39.5,1.19.44,1.79,0,.1-.01.2-.03.28h-.02s0,.01,0,.02c-.28-.27-1.03-.37-1.19-.2-.08.08,0,.21.1.29.33.34.41,1.25.34,1.86,0,.11-.02.2-.03.29h-.01v.03c-.33-.3-.9-.47-1.02-.35-.05.05-.03.16.08.32.42.61.28,1.75.16,2.18-1.89,4.19-3.99,6.33-6.24,6.38-1.84.04-2.82-1.61-2.93-2.78-.16-1.7,1.46-2.84,2.45-3.24.71-.3,1.16.11,1.31.3.58.7.5,1.17.34,1.45-.22.37-.71.55-1.03.49-.54-.1-.98.11-1.16.55-.17.42-.06.89.28,1.13.54.38,1.25.4,1.99.07.93-.42,1.72-1.32,1.81-2.07.16-.65-.1-1.96-.61-2.5-1.15-1.57-2.61-2.03-3.88-1.24-2.28,1.41-3.55,3.01-3.69,4.64-.12,1.49.68,3.01,2.4,4.51,2.04,1.79,5.33.69,6.8-.89,0,0,.18-.13.2-.13.38.14,2.19.69,3.8-.89.2-.2.4-.43.59-.7h-.15c-.48.06-1.76.2-2.07-.22-.08-.11-.09-.26-.02-.44.93-1.28,1.79-2.9,2.56-4.85.39-.02,2.16-.25,2.98-2.2.12-.3.22-.64.29-1.02l-.14.08c-.45.26-1.66.94-2.04.64-.13-.1-.16-.29-.08-.58.45-1.57.86-3.3,1.24-5.19.55-.09,2.22-.54,2.74-2.7.06-.26.1-.55.12-.86l-.12.08c-.42.28-1.53,1.03-2.02.83-.13-.05-.2-.16-.23-.33.25-1.67.47-3.49.67-5.42.26-.07,2.43-.79,2.43-3.58v-.29l-.07.07c-.37.34-1.35,1.24-1.87,1.11-.13-.03-.21-.12-.27-.28l.22-4.48.03-.7-.1-.03ZM67.08,8.08c1.72.61,2.67,2.03,2.52,3.83-.14,1.74-1.27,3.3-2.52,3.49v-7.32ZM67.08,36.6c.2-.02.43-.04.67-.03,1.7,0,2.45.8,2.45,2.59,0,1.29-.39,2.6-3.13,2.73v-5.28h.01ZM75.18,50.52h0c-1.1,1.84-2.49,2.98-6,2.98h-2.09v-1.93h1.88c2.87,0,4.83-.38,5.67-1.11.39-.34.5-.32.55-.29.1.07.01.31,0,.35h-.01ZM94.37,22.54l-.06.84c-.78,12.06-4.53,16.42-8.09,19.09l-.13.1c-1.12.84-2.39,1.79-4.72,2.56l-.07.02c-.44.14-1.78.57-2.13,1.18-.34.59-.44.64-.51.6-.14-.08.13-.88.24-1.07.26-.49.7-.77,1.54-1.16,1.6-.75,1.81-1.7,1.79-2.2-.03-.71-.52-1.39-1.19-1.65-.52-.2-1.02-.09-1.34.27.14.06.51.22.57.82.08.9-.39,1.28-.82,1.33-.51.06-1.1-.29-1.19-.98-.18-1.28.49-2.1.92-2.38.52-.35.85-.46,1.23-.59l.67-.25c1.06-.18,1.8.4,2.2.71.15.12.27.21.33.2l.05-.06c.15-.32-.06-1.56-.33-2.22l.02-.06h.04c.97-.14,1.47.52,1.77.91.1.13.2.26.24.24.02,0,.04-.04.06-.08.13-.38-.22-1.74-.52-2.38,0-.02-.02-.04-.03-.05h0s0-.02-.01-.03c.99-.29,1.6.26,1.93.55.12.11.23.2.27.18l.04-.07c.1-.36-.35-1.63-.72-2.26,0,0,.18-.2.2-.21.95-.37,1.57,0,1.93.24.14.08.25.15.3.13l.05-.08c.08-.36-.38-1.52-.76-2.07,0,0,.18-.23.2-.24.76-.26,1.35-.06,1.71.05.15.05.27.09.31.06.02,0,.04-.04.05-.09.05-.34-.4-1.38-.75-1.76,0,0,.16-.23.18-.24.71-.25,1.25-.07,1.58.04l.28.06s.04-.06.04-.14c0-.41-.44-1.43-.7-1.68h-.01l-.02-.02c.69-.57,1.33-.54,1.68-.52l.26-.02s.02-.04.02-.08c-.01-.27-.51-1-.86-1.28.82-1.54,1.41-2.97,1.73-4.26.41-1.63.48-1.62.54-1.62.09.02.08.34,0,1.62ZM84.93,36.28s.09-.02.14-.03c-.05,0-.09,0-.14.03h0ZM91.05,28.69c.09-.08.19-.14.28-.2-.09.05-.19.11-.29.19h.01ZM91.3,48.97s.07.06.1.09v-.02s-.06-.05-.1-.07ZM86.8,15.55s-.09.05-.25.13c.12-.06.2-.09.24-.11v-.02h.01ZM88.03,10.54h0s-.04,0-.1.02c.04,0,.08-.02.1-.02ZM84.78,21.55s-.1.06-.26.16c.13-.07.21-.12.25-.14v-.02h.01ZM67.99,67.05c-.28.12-.57.22-.88.28h.1c.27-.07.53-.17.78-.28ZM90.58,42.69c-.08-.03-.15-.05-.25-.06v.02c.09,0,.17.03.24.05h.01ZM90.48,51.22s.07.06.11.1v-.02s-.07-.05-.11-.08ZM91.83,46.69s.08.04.11.06h0s-.07-.05-.11-.06ZM92.44,44.79s.07.05.09.08h0s-.06-.06-.1-.08h.01ZM88.79,44.16h0s.08.02.12.03c-.04,0-.07-.02-.12-.03Z"/>
    <path class="st2" d="M66.03,15.12c-.32-.32-.29-1.78-.29-1.79,0-1.87-1.57-2.54-2.91-2.54-1.43,0-2.91.75-2.91,2.02v4.77c0,.25-.08.46-.23.59-.14.12-.34.18-.55.18-.44,0-.9-.27-.9-.73v-2.57c0-2.92-3.26-3.36-5.21-3.36-2.79,0-5.75,1.25-5.75,3.55v11.79c.02.63-.39,1.09-.74,1.29-.31.17-.62.19-.84.05-.2-.12-.41-.43-.35-1.15,0-.1-.04-.17-.11-.18-.1-.02-.25.05-.37.34-.34.87-.31,1.68.06,2.39.48.92,1.44,1.44,1.96,1.57l-.02,1.63h0c-1.85-.03-4.09-.75-4.09-4.12V12.61c0-2.48-1.03-3.32-1.89-3.58-1.59-.49-3.67.58-4.54,1.85-.92,1.34-.65,2.55-.09,3.23.63.78,1.69,1.04,2.63.64.02,0,.19-.12.18-.23,0-.07-.08-.12-.21-.14-.64-.1-1.02-.53-1.02-1.15,0-.68.59-1.25,1.3-1.25s1.27.56,1.27,1.25v16.35c-1.88-.03-2.39,1.51-2.39,2.42,0,1.43,1,1.97,1.04,1.99s.14.02.2-.04c.05-.04.09-.14,0-.31-.24-.47-.25-.89-.03-1.19.29-.4.9-.54,1.35-.48.29.04.48.16.54.32.7,1.97,2.5,2.97,5.52,3.05.07,0,.18.07.29.17v.89c-.93.4-2.99,1.75-2.9,5.63.07,2.96.65,7.09,1.21,7.51.05.04.1.05.15.04,2.51-.7,6.24-.74,8.13.38.26.15.4.34.39.51,0,.1-.07.18-.16.21-.09.04-.19,0-.27-.07-.82-.82-3.15-.92-3.84-.93-2.61-.04-7.96.76-9.54,4.1-.9,1.92.93,5.78,1.91,7,.06.08.19.08.29.04.08-.03.12-.09.11-.15-.38-1.92.38-3.8,2.13-5.32,2.14-1.84,5.26-2.68,7.27-1.95.27.1.44.26.47.45,0,.09,0,.16-.06.21-.05.04-.12.04-.19,0-2.61-1.13-5.27.59-5.3.6,1.13,6.77,9.37,6.6,15.39,6.48l2.06-.03s2.3,2.29,1.99,4.2c-.13.77-.65,1.38-1.57,1.83-.92.45-4.59.22-4.97-.09-.2-.16-.29-.65-.21-1.23.12-.91.67-2.14,1.8-2.64.12-.03.18-.09.17-.15-.03-.14-.41-.24-.67-.21-2.1.26-3.61,1.32-4.14,2.91-.12.35-.17.52-.18.89-.06.67-.21.68-1.09.78l-.47.05c-1.66.2-2.6.99-2.8,2.35-.16,1.07.18,2.15.91,2.97.61.68,1.4,1.05,2.17,1.02.04,0,.12-.04.13-.12.02-.06,0-.16-.2-.28-.93-.54-1.18-1.41-1-2.04.19-.69.85-1.11,1.72-1.1,0,0,.37,0,.39.26v.26l.06.76c.35,2.04,1.91,3.83,3.79,4.35.07.02.21-.03.25-.13.03-.08,0-.21-.32-.34-1-.74-1.36-2.2-1.36-3.32,0-.75.15-1.37.38-1.54.42-.32,1.96-.53,2.72.24.76.75,1.1,1.45.96,1.95-.09.33-.39.57-.88.7-.06.01-.09.12-.08.2,0,.04.05.17.23.13,2.01-.3,2.71-1.87,2.7-3.14,0-.01-.02-.08.02-.13.04-.05.13-.08.25-.08l1.48.02c.25,0,.52,0,.8.01v-17.01h-5.66c-1.31,0-1.81.56-1.85,1.1-.04.71.7,1.55,2.16,1.73.09,0,.32.15.32.24,0,.02-.03.09-.34.1-.97,0-2.98.04-3.72-1.15-.45-.73-.48-1.66-.07-2.39.52-.93,1.69-1.44,3.3-1.44h5.86v-2.27c-2.94.43-6.01.19-7.95-.43-3.65-1.19-6.69-4.52-5.44-8.59.17-.56.57-1.15,1.21-1.79.8-.79,1.59-.81,1.86-.82.11.02.18,0,.21-.06.07-.13-.16-.37-.17-.38-1.26-1.5-6.54-1.95-7.58-1.51-.03,0-.06-.04-.08-.07-.43-.77-.58-5.75,1.3-7.06.79-.54,1.61-.75,2.21-.54.48.17.83.59,1.02,1.26.23.78,0,1.69-.52,2.03-.38.25-.87.17-1.37-.25-.14-.11-.2-.28-.25-.43l-.07-.16c-.05-.11-.14-.23-.23-.22-.03,0-.07.02-.09.08-.07,1.59.56,2.74,1.73,3.16,2.02.74,4.23-.04,5.62-1.97,1.29-1.81,1.83-4.85.57-5.92-.09-.07-.16-.09-.2-.06-.11.06-.06.34-.05.4,0,1.69-1.09,2.91-2.16,3.11-.92.17-1.69-.39-2.12-1.54,0,0,.04-.25.32-.22.93.08,1.6-.26,1.94-.98.42-.9.07-2.16-.82-2.93-.03-.01-.22-.06-.29,0-.02.01-.04.04-.03.09.13,1.11-.16,1.81-.8,1.94-.59.12-1.29-.31-1.45-.88-.17-.61.32-1.17,1.35-1.54.05-.02.07-.05.08-.08.02-.09-.07-.19-.08-.2-1.35-.45-2.78.03-3.28,1.09-.33.7-.02,1.95.75,2.31,0,0,.03.04-.02.12-.15.21-.86.49-1.52.28-.48-.15-1.05-.6-1.05-1.89v-7.79c0-.8.88-1.23,1.75-1.3.86-.07,1.84.2,1.97.96.16.98.03,1.23-.28,1.38-.6.28-1.12-.18-1.12-.18,0,0,0,.01-.02.02h0v.03c-.1.19-.08.38.02.57.22.41.79.75,1.46.86.66.12,1.16.04,1.48-.23.25-.21.38-.54.38-.94v-1.27c0-.59.32-.87.62-.88.27-.01.56.19.61.66l.02,1.68-.02,2.77c0,1.99,1.55,2.9,3,2.9s2.92-.93,2.92-2.7v-4.1c0-.76.31-1.24.83-1.29s1.17.39,1.32,1.18c.17.9.1,1.05-.14,1.51l-.14.27-.1.21c-.23.47-.34.69-.26.8.06.08.21.08.52.05.99-.12,1.88-.34,2.69-.67v-3.85h-.05c-.35.05-.73.08-1.03-.23h-.1ZM50.76,40.3c0,1.2-1.02,2.17-2.29,2.17s-2.28-.98-2.28-2.17,1.02-2.16,2.28-2.16,2.29.97,2.29,2.16ZM51.96,17.83h0ZM47.01,40.3c0,.77.65,1.39,1.46,1.39s1.46-.62,1.46-1.39-.66-1.38-1.46-1.38-1.46.62-1.46,1.38ZM62.47,8.33c-.23.29-.41.63-.32.72.05.04.15,0,.3-.12,1.27-1.09,2.77-1.38,4.46-.85.08.02.14.06.21.08v-1.66c-2.96-.07-4.3,1.36-4.65,1.83ZM59.9,33.83c-.63.83-.95,2.79-.95,5.82,0,4.79,3.7,5.46,7.7,5.46.16,0,.31,0,.46,0v-3.27c-.15,0-.3,0-.46,0-3.38,0-4.66-.26-4.66-2.97,0-3.22,1.47-4.52,3.67-5.48l1.42-.63s.02,0,.03,0v-3.48c-.37.16-.73.32-1.1.48-2.21.96-4.5,1.95-6.12,4.1v-.02ZM43.96,48.08h.04l.05-.04-.54-3.63c0-.19,0-.33-.09-.4-.1-.07-.29-.05-.66.06h0c-5.13,1.68-5.15,3.62-4.73,7.19.03.23.35.66.47.66h.03l.03-.05c.06-.31.26-.75.34-.9,1.5-2.65,4.04-2.9,5.06-2.89ZM43.99,48.05h-.18.18ZM64.28,38.53c-.05.21.04.45.2.51.06.03.22.05.39-.24l.15-.36c.35-.87.65-1.62,2.11-1.79v-1.62c-1.4.46-2.62,1.59-2.84,3.49h-.01Z"/>
    <g>
      <path class="st3" d="M129.34,89.57c-.24-3.04-2.83-5.17-15.01-2.34-.05-1.39-.11-2.63-.13-3.23-.11-2.34-2.6-3.63-7.65-3.46-2.49.08-3.81.18-4.75.31-3.39-2.62-4.4-6.79-4.21-10.53l4.9-5.66c1.31-1.01-3.07-5.47-7.32-4.22l-8.33,10.98c.13-.11.26-.2.39-.29-2.02,2.56-1.87,7.45,1.03,12.29-6.86,1.13-14.67,2.23-20.22,2.23-.32,0-.65,0-.98-.01-.33,0-.66.01-.98.01-5.55,0-13.36-1.1-20.22-2.23,2.9-4.84,3.05-9.73,1.03-12.29.13.09.26.19.39.29l-8.33-10.98c-4.25-1.26-8.63,3.2-7.32,4.22l4.91,5.66c.19,3.74-.82,7.91-4.21,10.53-.93-.13-2.26-.23-4.75-.31-5.05-.16-7.55,1.12-7.65,3.46-.03.6-.08,1.84-.13,3.23-12.18-2.83-14.77-.7-15.01,2.34-.2,2.49-.29,7.36,0,9.15.28,1.8,2.97,3.12,5.85,3.62,6.67,1.14,19.34-.33,29.07-8.94,6.14,1.43,13.61,3.23,26.38,3.23h1.96c12.77,0,20.24-1.8,26.38-3.23,9.74,8.62,22.41,10.09,29.08,8.94,2.88-.49,5.57-1.82,5.85-3.62s.2-6.66,0-9.15h-.02Z"/>
      <path class="st2" d="M32.19,85.2c-.24.57-.91,4.28-.98,5.07.2,0,.51.05.53-.02.72-1.7,1.09-3.49,1.24-5.32-.3,0-.64-.08-.79.27ZM35.64,85.22c.21.83-.04,5.01.6,6.22.15.25.51-.06.54-.28.28-2.02.04-3.91-.35-5.92,0-.06-.5-.02-.79-.02ZM36.8,83.97s.08-.41-.02-.49c-1.4-1.21-3.11-.58-4.69-.58-.41.01-.27.51-.29.83.2,0,.39.02.59,0,1.53-.2,2.9.57,4.41.23h0ZM129.88,89.53c-.1-1.33-.61-2.31-1.55-2.99-2.12-1.54-6.42-1.51-13.5.08-.03-.72-.06-1.51-.1-2.38v-.26c-.09-1.91-1.58-4.14-8.17-3.93-2.31.07-3.64.16-4.58.29-1.75-1.41-2.73-3.17-3.25-4.77-.54-1.63-.71-3.38-.65-5.05l4.78-5.52c.25-.22.64-.75.12-1.77-.87-1.7-4.36-4.31-7.94-3.25-.1.03-.19.09-.25.17l-8.34,10.98c-.09.12-.11.28-.08.42-.27.46-.49.98-.66,1.54-.24.82-.35,1.7-.35,2.61,0,2.33.75,4.88,2.12,7.35-6.7,1.09-14.12,2.11-19.47,2.11-.32,0-.65,0-.98-.02-.33,0-.66.02-.98.02-5.35,0-12.77-1.02-19.47-2.11,1.37-2.47,2.13-5.03,2.13-7.35,0-.91-.11-1.79-.35-2.61-.16-.57-.39-1.08-.65-1.54.04-.14.02-.29-.08-.42l-8.34-10.98c-.06-.08-.15-.14-.25-.17-3.57-1.06-7.07,1.56-7.94,3.25-.52,1.02-.13,1.55.12,1.77l4.78,5.52c.06,1.67-.11,3.42-.65,5.05-.52,1.6-1.5,3.36-3.25,4.77-.94-.12-2.26-.21-4.58-.29-6.59-.21-8.07,2.02-8.16,3.93v.26c-.05.87-.08,1.66-.11,2.38-7.07-1.59-11.38-1.61-13.49-.08-.94.68-1.44,1.66-1.55,2.99-.19,2.45-.3,7.4,0,9.27.35,2.24,3.59,3.57,6.26,4.03,5.69.97,18.83.26,29.32-8.9.04,0,.07.02.11.03,6.05,1.41,13.57,3.16,26.17,3.16h1.96c12.59,0,20.12-1.75,26.16-3.16.04,0,.07-.02.11-.03,10.48,9.16,23.62,9.87,29.31,8.9,2.67-.46,5.9-1.78,6.26-4.03.3-1.87.2-6.82,0-9.27h.01ZM106.6,81.03c3.19-.1,7.03.33,7.15,3v.26c.17,3.64.23,5.83.23,7.13,0,.5,0,.85-.02,1.12-.87-.64-1.99-.82-3.35-1.01-4.23-.6-7.63-.34-11.1.29l-.06-.34c.12-.27-.68-4.39-.56-4.57.3-.44,1.71.03,1.69-.84-.02-.76-1.23-.41-1.8-.47-.22-.02-.21-.06-.25-.24-.07-.33-.39-1.9-.66-2.16-.24-.24-.62-.02-.69.28-.14.49.64,2.41.34,2.42-.79.04-1.59.72-1.65.54-.14-.38-.15-.98-.43-1.37-.37-.53-1.69-.16-1.7-.41-.03-.58.37-.53.61-.66.16-.08.33-.2.35-.39.04-.24.05-.58-.09-.77.44-.08.87-.15,1.29-.23l.85-.15c1.71-.3,2.63-.54,3.37-.73,1.35-.35,2.1-.55,6.48-.69h0ZM113.59,94.68c-.54.59-2.14.48-3.55.38-1.4-.1-2.73-.2-3.53.3,0-.22-.01-.45,0-.69.04-1.3.33-2.2.61-2.47,1.07.04,2.18.14,3.36.3,1.71.24,2.65.41,3.3,1.19.06.45,0,.78-.19,1h0ZM94.56,86.53c.22.03.37.07.37.29,0,.27-.39.31-.46.34-.09.04-.35.03-.38-.07-.13-.36.09-.62.47-.56ZM93.81,85.77c-.1-.13-.06-.41,0-.42.05-.02.38-.21.53-.1.1.08.19.23.14.35-.09.22-.5.38-.67.18h0ZM94.49,87.73c.07-.23,1.1.1,1.18-.63.02-.15.21.13.53.26.31.13,1.21-.33,1.76-.24.04.01.81,4.2.66,4.82l-1.75.29c-.06-2.1-1.02-4.23-1.52-4.24-.46,0-.97.21-.85-.26h-.01ZM93.22,83.25s-.02-.08-.03-.18c.23-.04.46-.08.68-.12-.02.1-.03.2-.12.26-.18.12-.43.01-.53.04ZM95.47,60.89c2.97-.79,5.95,1.4,6.66,2.78.1.18.15.35.15.47,0,.06-.01.11-.05.13-.02.02-.05.04-.07.06,0,0-6.82,7.87-7.53,8.69-1.34-1.83-2.84-2.94-4.39-3.17-.56-.08-1.12-.04-1.67.11,1.84-2.43,6.71-8.82,6.9-9.07ZM86.38,75.61c0-.83.1-1.59.29-2.26.21-.73.53-1.37.94-1.89.81-.54,1.64-.76,2.48-.63,1.41.2,2.82,1.32,4.1,3.24.08.13.22.21.38.22.15,0,.3-.05.4-.17l2.15-2.47c.04,1.41.25,2.85.7,4.23.51,1.56,1.4,3.25,2.92,4.69-.29.06-.56.13-.86.21-.72.19-1.62.42-3.29.71l-.85.15c-.97.17-2.01.35-3.08.54-.16,0-.37.02-.65.11h0c-1.11.19-2.26.39-3.44.59-1.5-2.61-2.17-5.16-2.17-7.27h-.02ZM92.27,85.73l.11-.08c.13-.04.31-.22.45-.07.15.16.14.44.02.58-.16.18-.56.09-.67-.1-.08-.12.05-.25.09-.34h0ZM91.8,83.81c-.05-.03-.03-.41-.17-.46.24-.04.47-.08.71-.12.04.2.05.4-.04.53-.09.14-.35.14-.5.06h0ZM92.36,86.93c.16-.11.58-.15.67.06.05.1.12.23.05.33-.09.11-.41.21-.56.18-.04,0-.57-.27-.15-.57h-.01ZM74.78,88.35c.23.09.55.09.69-.09.23-.26-.12-.98.27-1.01,1.17-.1,1.67.55,1.99.94.08.11-1.67,1.54-2.19,2.38-.59-.42-1.59-.6-2.35-.85,0,0-.12-.48.24-.9.46.46,1,1.03,1.8,1.03.82-.01,1.89-1.57,1.52-1.84-.58-.41-.99,1.56-2.05.87-.37-.25-.98-1.02-.29-1.14.24-.05.11.49.36.6h.01ZM55.94,85.39c1.13.14,2.25.26,3.34.37-.76.78.23,2.53-.93,3.17-.19-.45-.56-.36-.88-.28-.45.11-.4.69-.25.85.44.45,1.74.29,1.39,1.32-.24.71-.73,1.39-1.39.87-1.31-1.02-1.27-2.76-.81-4.4.05-.15,0-.87-.4-1.26-.14-.14-.17-.49-.09-.64h.02ZM55.1,86.39c.2.21.44.39.57.65.31.62-.27.88-.57,1.25-.26-.38-.64-.77-.54-1.25.05-.25.34-.43.54-.65ZM31.97,64.34s-.05-.04-.07-.06c-.03-.03-.05-.07-.05-.13,0-.11.05-.28.15-.47.71-1.39,3.68-3.57,6.66-2.78.19.25,5.05,6.65,6.9,9.07-.55-.15-1.1-.19-1.67-.11-1.55.22-3.05,1.34-4.38,3.17-.71-.82-7.53-8.69-7.53-8.69h-.01ZM36.3,75.87c.45-1.38.66-2.81.7-4.23l2.15,2.47c.1.12.25.18.4.17s.29-.09.38-.22c1.27-1.92,2.69-3.04,4.1-3.24.84-.13,1.67.09,2.48.63.41.52.73,1.16.94,1.89.19.67.29,1.43.29,2.26,0,2.1-.67,4.66-2.17,7.27-2.58-.43-5.03-.86-7.18-1.24l-.85-.15c-1.67-.29-2.57-.53-3.29-.71-.3-.08-.58-.15-.86-.21,1.52-1.44,2.41-3.13,2.92-4.69h0ZM5.21,89.61c.08-1.04.45-1.76,1.15-2.28,1.84-1.34,6.17-1.24,12.88.28-.1,2.83-.1,4.37-.04,5.22.06,1,.2,2.08.59,2.5.88.92,2.63.82,4.34.7,1.23-.09,2.62-.19,3.05.23.07.07.15.19.13.5-.04.47-.2.8-.52,1.02-1.38.97-5.22-.08-8.31-.92-1.39-.38-2.69-.73-3.76-.92-3.5-.61-7.4-1.12-9.33.4-.13.1-.24.22-.35.34-.07-2.21.01-5.29.16-7.07h.01ZM20.34,93.68c.65-.78,1.59-.95,3.3-1.19,1.18-.16,2.29-.26,3.36-.3.28.27.58,1.17.61,2.47v.69c-.8-.5-2.13-.4-3.53-.3-1.41.1-3.01.22-3.55-.38-.19-.21-.25-.54-.19-1h0ZM10.66,101.86c-2.96-.5-5.18-1.8-5.44-3.16.06-.7.32-1.22.8-1.6,1.54-1.21,5.02-.81,8.55-.2,1.02.18,2.31.53,3.67.9,3.62.99,7.37,2.01,9.13.78.04-.03.08-.07.12-.11.01,0,.03,0,.04-.01.85-.6,1.11-2.37,1.07-3.83-.01-.55-.1-1.64-.46-2.46,3.66,0,6.87.66,10.5,1.49-10.11,8.48-22.54,9.14-27.97,8.21h-.01ZM53.75,95.49c-5.65-.63-9.92-1.62-13.62-2.49-2-.46-3.84-.89-5.68-1.22-.02-2.23.54-4.62.19-6.85,0-.05-.5,0-.79,0,.11,2.15-.63,4.49-.48,6.68-3.06-.47-6.15-.61-9.87-.08-1.35.19-2.47.37-3.35,1.01-.01-.27-.02-.62-.02-1.12,0-1.3.05-3.49.21-7.13v-.26c.13-2.66,3.97-3.1,7.16-3,4.38.14,5.13.33,6.48.69.73.19,1.64.43,3.32.72.09.05.19.11.27.15.8.28,1.44,1.88,1.46,2.93.05,2.16-1.06,4.39-.12,6.51.04.08.35.02.54.02-.48-2.75,1.56-5.73.05-8.35-.11-.19-.06-.71.16-.85,4.43.78,9.84,1.7,15.04,2.38-.3.32-.9,1.11-1.03,1.49-.4,1.18.61,2.33-.26,3.55-.38.53.42,1.36.32,1.77-.21.87-1.84,1.58-1.14,2.44.55.68.86-1.16,1.26-.96.62.31.18,1.64-.1,1.98h0ZM54.86,89.69c.35-.13.63.69.76,1.16.08.28-.25.89-.49.81-.9-.26-1.25-1.6-.27-1.97ZM74.22,95.94s.02.03.02.05c-1.92.1-3.98.15-6.2.15h-1.96c-4.22,0-7.85-.2-11.06-.52-.1-.28-.28-1.23.09-1.27.48-.04,1.11.59,1.37.19.6-.94-.61-1.63-1.38-2.14.2-.21.49-.59.55-.55,1.29.79,3.54,1.05,3.77-.73.21-1.67,1.25-3.52.34-5.22,0-.05,0-.08-.02-.11,2.28.21,4.44.34,6.34.34.32,0,.65,0,.98-.01.33,0,.66.01.98.01,1.89,0,4.04-.13,6.31-.34v.14c.01.21.34.84-.53.93-1.91.18-2.52,4.8-1.49,4.83.7.03.36-.75.52-1.1.07-.16,1.58.34,2.14.81-.51.92-.69,2-.77,3.07-.02.39.02,1.36,0,1.46h0ZM75.07,95.94v-.22c.13-1.06.25-2.69.58-3.26.41-.71,1.03.58,1.08.74.21.61.72,2.17.74,2.57-.78.06-1.58.12-2.4.17ZM93.98,93c-4.14.97-8.98,2.09-15.68,2.7.07-.08.1-.16.06-.25,0,0-.35-2.9-2.01-4.35.52-.61,1.51-1.89,1.92-1.85.23.02.04,1.17.26,1.34.13.11.81.11.83-.07.12-1.23-.6-4.46-3.77-4.12l.07-.57v-.16c4.98-.51,10.45-1.38,15.25-2.2-.14.06-.24.16-.23.31.02.64.7.92,1.23.83.15-.03.13.34.01.48-.21.21-.92.35-.86,1.19.17,2.81,2.08,1.44,2.19,1.73.21.56-1.17.25-1.17.77,0,.72,1.64-.05,1.69.11.24.79-1.89.27-1.87,1.04.02.79,2.15-.04,2.18.12.19.78-1.21.25-1.19,1.01.02.32.53.28.8.21.58-.17,1.16-.36,1.63-.75.21.21.29.48.39.75.13.36.06.75.13,1.18v.14c-.61.14-1.22.28-1.86.43v-.02ZM123.46,101.86c-5.43.93-17.86.28-27.97-8.21,3.63-.84,6.84-1.5,10.5-1.49-.37.82-.45,1.91-.47,2.46-.04,1.46.22,3.22,1.07,3.83.01,0,.03,0,.04.01.04.03.07.07.12.11,1.75,1.23,5.5.21,9.13-.78,1.36-.37,2.65-.72,3.67-.9,3.53-.61,7.02-1.01,8.55.2.48.38.74.91.79,1.6-.27,1.36-2.49,2.66-5.45,3.16h.02ZM129.07,96.68c-.11-.12-.22-.24-.35-.34-1.93-1.52-5.83-1-9.33-.4-1.07.19-2.38.54-3.76.92-3.09.84-6.93,1.89-8.31.92-.32-.22-.48-.55-.52-1.02-.02-.31.06-.43.13-.5.42-.42,1.81-.32,3.04-.23,1.71.12,3.46.23,4.34-.7.39-.41.53-1.49.59-2.5.07-.85.06-2.39-.03-5.22,6.71-1.52,11.05-1.62,12.88-.28.7.51,1.07,1.24,1.15,2.28.14,1.78.23,4.86.16,7.07h.01Z"/>
    </g>
  </g>
</svg>